# xmcd
#
# Track frame offsets:
#	150
#	13581
#	25633
#	32573
#	55114
#	71218
#	83370
#	113484
#	125235
#	136091
#	145422
#	154219
#	166674
#	183571
#	195087
#
# Disc length: 2738 seconds
#
# Revision: 0
# Processed by: cddbd v1.5.1PL2 Copyright (c) Steve Scherf et al.
# Submitted via: EasyCDDAExtractor 10.0.1.1
#
DISCID=b90ab00f
DTITLE=The Staple Singers - The Gospel According to
DYEAR=1999
DGENRE=Blues
TTITLE0=Uncloudy Day
TTITLE1=Let Me Ride
TTITLE2=Let's Go Home
TTITLE3=Too Close
TTITLE4=Stand by Me
TTITLE5=Help Me Jesus
TTITLE6=I'm Coming Home
TTITLE7=Ain't That Good News
TTITLE8=I Got Religion
TTITLE9=This May Be The Last Time
TTITLE10=Going Away
TTITLE11=Pray On
TTITLE12=Somebody Save Me
TTITLE13=Each Day
TTITLE14=So Soon
EXTD=
EXTT0=
EXTT1=
EXTT2=
EXTT3=
EXTT4=
EXTT5=
EXTT6=
EXTT7=
EXTT8=
EXTT9=
EXTT10=
EXTT11=
EXTT12=
EXTT13=
EXTT14=
PLAYORDER=
